<svg width="288" height="80" viewBox="0 0 288 80" fill="none" xmlns="http://www.w3.org/2000/svg">
<g clip-path="url(#clip0_632_1063)">
<path d="M41.8574 70.5748L38.8559 79.7385H36.8891L34.6038 72.0869L32.3186 79.7385H30.3745L27.3502 70.5748H29.0442L31.3522 78.2491L33.6431 70.5748H35.5645L37.8611 78.2605L40.1634 70.5748H41.8574Z" fill="#B9BABB"/>
<path d="M70.1157 75.1396C70.1157 76.6404 69.5018 77.8569 68.2682 78.7835C67.1881 79.5907 65.8466 80 64.2435 80C62.6404 80 61.2761 79.5907 60.196 78.7721C58.9625 77.8455 58.3485 76.6347 58.3485 75.1396C58.3485 73.6445 58.9738 72.4678 60.2188 71.5185C61.3159 70.6942 62.6575 70.2792 64.2435 70.2792C65.8295 70.2792 67.1768 70.6942 68.2569 71.5185C69.4961 72.4621 70.1157 73.6673 70.1157 75.1396ZM68.5354 75.1396C68.5354 74.0709 68.0806 73.2011 67.1711 72.5304C66.3866 71.9562 65.4145 71.672 64.2492 71.672C62.9758 71.672 61.9355 72.0017 61.134 72.6554C60.3325 73.3092 59.9345 74.1391 59.9345 75.1396C59.9345 76.1401 60.3268 77.0155 61.1113 77.6522C61.8957 78.2889 62.9417 78.6072 64.2492 78.6072C65.5566 78.6072 66.5856 78.2889 67.37 77.6465C68.1488 77.0042 68.5411 76.1685 68.5411 75.1396H68.5354Z" fill="#B9BABB"/>
<path d="M98.2775 79.7385H96.5096L94.0311 76.2481H89.4038V79.7385H87.886V70.5748H95.1112C96.0719 70.5748 96.8279 70.8363 97.3737 71.3536C97.9194 71.8709 98.1979 72.5758 98.1979 73.4626C98.1979 74.2414 97.9762 74.8611 97.5272 75.3329C97.1122 75.7706 96.5437 76.0491 95.8161 76.1685L98.2718 79.7385H98.2775ZM94.8838 74.8781C96.0548 74.8781 96.6403 74.4063 96.6403 73.4626C96.6403 72.4508 96.0094 71.9448 94.7417 71.9448H89.4038V74.8838H94.8838V74.8781Z" fill="#B9BABB"/>
<path d="M124.421 79.7385H115.826V70.5748H117.344V78.3685H124.415V79.7328L124.421 79.7385Z" fill="#B9BABB"/>
<path d="M147.189 70.5748C148.786 70.5748 150.048 71.0012 150.98 71.8482C151.912 72.6952 152.379 73.8321 152.379 75.259C152.379 76.5664 151.884 77.6579 150.901 78.522C149.98 79.3292 148.843 79.7385 147.484 79.7385H141.396V70.5748H147.194H147.189ZM147.604 78.3685C148.513 78.3685 149.263 78.0729 149.849 77.4874C150.434 76.8962 150.73 76.1401 150.73 75.2192C150.73 74.2357 150.417 73.4456 149.786 72.843C149.155 72.2404 148.331 71.9391 147.314 71.9391H142.908V78.3685H147.604Z" fill="#B9BABB"/>
<path d="M183.28 70.5748L180.279 79.7385H178.312L176.027 72.0869L173.741 79.7385H171.797L168.773 70.5748H170.467L172.775 78.2491L175.066 70.5748H176.987L179.284 78.2605L181.586 70.5748H183.28Z" fill="#B9BABB"/>
<path d="M201.772 79.7385H200.255V70.5748H201.772V79.7385Z" fill="#B9BABB"/>
<path d="M225.813 70.5748C227.405 70.5748 228.672 71.0012 229.605 71.8482C230.537 72.6952 231.003 73.8321 231.003 75.259C231.003 76.5664 230.508 77.6579 229.525 78.522C228.604 79.3292 227.467 79.7385 226.109 79.7385H220.02V70.5748H225.819H225.813ZM226.228 78.3685C227.137 78.3685 227.888 78.0729 228.473 77.4874C229.059 76.8962 229.354 76.1401 229.354 75.2192C229.354 74.2357 229.042 73.4456 228.411 72.843C227.78 72.2404 226.956 71.9391 225.938 71.9391H221.532V78.3685H226.228Z" fill="#B9BABB"/>
<path d="M258.278 79.7385H248.688V70.5748H257.925V71.9391H250.205V74.2926H255.572V75.6569H250.205V78.3628H258.278V79.7271V79.7385Z" fill="#B9BABB"/>
<path d="M287.298 12.853L279.845 15.5191C274.831 10.1869 267.816 7.52078 258.795 7.52078C251.962 7.52078 246.391 9.27733 242.082 12.7848C237.773 16.2922 235.624 20.7603 235.624 26.1835C235.624 31.6066 237.756 36.3135 242.014 39.7527C246.272 43.1919 252.024 44.9144 259.272 44.9144C268.021 44.9144 274.9 42.2028 279.913 36.7796L286.951 40.6736C283.398 44.8234 279.373 47.8192 274.888 49.661C270.397 51.5086 265.037 52.4295 258.789 52.4295C250.041 52.4295 242.77 50.2409 236.983 45.8694C230.377 40.8555 227.075 34.2955 227.075 26.1835C227.075 18.0715 230.423 11.6933 237.119 6.63397C242.952 2.217 250.177 0.00567627 258.789 0.00567627C271.182 0.00567627 280.686 4.2919 287.292 12.8587L287.298 12.853Z" fill="#E7E8EA"/>
<path d="M156.392 1.62585H194.041C194.041 1.62585 211.192 -0.0738598 212.045 15.6726C212.897 31.4134 199.248 31.8397 199.248 31.8397L212.511 51.1164H202.972L184.144 24.7737L194.473 24.8704C194.473 24.8704 204.319 25.2342 203.682 16.6617C203.046 8.08929 193.444 9.0102 193.444 9.0102H161.593L156.398 1.62585H156.392Z" fill="#E7E8EA"/>
<path d="M0.484653 1.57465H41.8575C41.8575 1.57465 55.3983 1.57465 56.5239 13.8023C57.388 22.2838 50.1514 25.5695 50.1514 25.5695C50.1514 25.5695 58.3487 27.7183 58.6272 37.098C59.1616 47.4725 51.1349 50.8094 41.0787 51.0481L0.461914 51.0936L0.484653 22.2838H41.2606C41.2606 22.2838 48.7303 21.7438 48.5825 14.9961C48.1504 7.99829 39.271 8.95331 39.271 8.95331H0.484653V1.57465ZM8.66486 29.6682V43.6808H41.1867C41.1867 43.6808 50.9075 43.8457 50.2196 36.2453C49.9979 29.3157 41.6813 29.6738 41.6813 29.6738H8.66486V29.6682Z" fill="#E7E8EA"/>
<path d="M79.8823 1.55769H121.255C121.255 1.55769 134.796 1.55769 135.922 13.7854C136.786 22.2668 129.549 25.5526 129.549 25.5526C129.549 25.5526 137.746 27.7014 138.025 37.081C138.559 47.4555 130.533 50.7924 120.476 51.0312L79.8596 51.0766L79.8823 22.2668H120.658C120.658 22.2668 128.128 21.7268 127.98 14.9791C127.548 7.98134 118.669 8.93636 118.669 8.93636H79.8823V1.552V1.55769ZM88.0625 29.6512V43.6638H120.584C120.584 43.6638 130.305 43.8287 129.617 36.2283C129.396 29.2988 121.079 29.6569 121.079 29.6569H88.0568L88.0625 29.6512Z" fill="#E7E8EA"/>
</g>
<defs>
<clipPath id="clip0_632_1063">
<rect width="286.836" height="80" fill="white" transform="translate(0.461914)"/>
</clipPath>
</defs>
</svg>
