<?xml version="1.0" encoding="utf-8"?>
<!-- Generator: Adobe Illustrator 28.3.0, SVG Export Plug-In . SVG Version: 6.00 Build 0)  -->
<svg width="179"
	 xmlns="http://www.w3.org/2000/svg" xmlns:xlink="http://www.w3.org/1999/xlink" x="0px" y="0px" viewBox="0 0 133.1 50.1"
	 style="enable-background:new 0 0 133.1 50.1;" xml:space="preserve">
<path fill="#F26A30" d="M132.7,45.9l-7.2-9.6c3.9-3.2,6.7-7.9,7.4-13.3c1.4-11.2-6.5-21.4-17.8-22.8c-11.2-1.4-21.4,6.5-22.8,17.8
	c-1.4,11.2,6.6,21.4,17.8,22.8c4.2,0.5,8.3-0.3,11.8-2.1c0,0.1,0.1,0.1,0.1,0.2l7.2,9.6c0.7,0.9,2.1,1.1,3,0.4
	C133.2,48.2,133.4,46.8,132.7,45.9z M110.5,37.2c-9.2-1.1-15.8-9.6-14.6-18.8c1.2-9.2,9.6-15.8,18.8-14.6s15.8,9.6,14.6,18.8
	C128.2,31.8,119.7,38.3,110.5,37.2z"/>
<path fill="#F26A30" d="M125.2,14.3c-0.9-0.4-1.7-0.6-2.4-0.6h-0.3c-0.5,0-1.2,0.2-2.1,0.5c-1.9,1-2.9,2.6-2.9,4.9v2.7
	c-0.1-0.6-0.3-1.2-0.6-1.6c-0.3-0.6-0.9-1.2-1.7-1.7c-1.2-0.6-2.2-0.7-3.1-0.6l2.7-4.2l-2,0c0,0-2,3-3.9,5.8c-0.6,0.8-0.9,1.8-1,3
	c0,0,0,0.1,0,0.1c0-0.2-0.1-0.4-0.2-0.7c-0.3-0.6-0.6-1.1-1-1.4c0.9-0.7,1.3-1.7,1.3-3c0,0,0-3.8-3.8-3.8h-6v1.6h5.3
	c1.9,0,2.8,0.7,2.8,2.2s-1.3,2.2-2,2.2h-5.5v1.7h4.9c0.7,0,0.9,0,1,0.1c0.6,0.2,1.5,0.6,1.5,2.1s-1.5,2.2-2,2.2h-6v1.7h0.5h4.4
	l1.3,0c0.5,0,1-0.1,1.7-0.5c0.6-0.3,1-0.9,1.4-1.5c0.2-0.3,0.3-0.8,0.5-1.6v-0.2c0.3,1.3,1,2.4,2.3,3.2c0.8,0.4,1.5,0.6,2.1,0.6
	l0.9,0c0.8,0,1.7-0.4,2.8-1.2c1-1,1.5-2.1,1.5-3.2c0,0.1,0,0.2,0.1,0.4c0.1,0.9,0.6,1.7,1.4,2.7c1.1,0.9,2.3,1.4,3.4,1.4l0.7,0
	c0.2,0,0.5,0,0.7-0.1c0.5,0,1.1-0.3,1.9-0.7c0.4-0.3,0.7-0.5,0.9-0.8c0.8-0.9,1.3-2.1,1.3-3.4v-3.8C127.8,16.8,127,15.3,125.2,14.3z
	 M112.7,19.5h0.2c1,0,1.8,0.4,2.4,1.1c0.5,0.7,0.7,1.3,0.7,2c0,0.9-0.3,1.7-0.9,2.3c-0.7,0.6-1.4,0.9-2.3,0.9h-0.1
	c-0.7,0-1.4-0.2-2-0.7c-0.7-0.7-1.1-1.5-1.1-2.3v-0.3c0-0.7,0.2-1.3,0.7-1.9C111,19.8,111.8,19.5,112.7,19.5z M119.7,24.2
	L119.7,24.2c-0.3-0.4-0.5-1-0.5-2.6v-1.5l0-0.5c0-1,0.1-1.6,0.2-2c0.2-0.4,0.4-0.8,0.7-1.2c0.8-0.6,1.6-1,2.4-1h0.2
	c0.6,0,1.1,0.2,1.7,0.5c1.1,0.6,1.6,1.6,1.6,3.1v3.2c0,1.2-0.4,2.1-1.1,2.7c-0.8,0.6-1.5,0.9-2.3,0.9h-0.2c-0.3,0-0.6-0.1-1.1-0.2
	C120.6,25.2,120,24.8,119.7,24.2z"/>
<path fill="#535453" d="M10.4,6H12v17.7c0,3.2-0.6,5.7-1.7,7.3c-1.1,2.2-3.2,3.8-6.2,4.9c-1.2,0.4-2.6,0.6-4.1,0.6v-1.6h0.3
	c2.3,0,4.5-0.8,6.6-2.3c2.4-2.1,3.5-4.9,3.5-8.2L10.4,6L10.4,6z"/>
<path fill="#535453" d="M25.9,6.3c2.4,0,4.7,0.6,6.9,1.8c2.1,1.4,3.5,2.9,4.2,4.7c0.4,0.8,0.8,2,1.1,3.7l0.1,1.4v7
	c0,3.3-1.1,6.1-3.4,8.4c-2.3,2.2-5.2,3.3-8.7,3.3h-0.6c-2.1,0-4.4-0.8-6.8-2.3c-3-2.4-4.5-5.8-4.5-10v-5.5c0-2.6,0.6-4.9,1.8-7
	c1.5-2.3,3.6-3.9,6.3-4.8C23.6,6.5,24.9,6.3,25.9,6.3L25.9,6.3z M15.8,18.6V24c0,5.2,2.4,8.7,7.3,10.3c1.3,0.2,2.2,0.4,2.8,0.4h0.6
	c1.9,0,3.9-0.6,5.9-1.8c1.1-0.8,1.9-1.6,2.5-2.6c0.8-1,1.3-2.6,1.7-4.8v-7c0-3.2-1.4-6-4.1-8.2c-2-1.3-3.8-1.9-5.3-1.9l-0.9-0.1
	c-1.1,0-2.5,0.2-4,0.7c-2.4,0.9-4.2,2.6-5.4,5C16.1,15.4,15.8,17,15.8,18.6L15.8,18.6z"/>
<path fill="#535453" d="M61.6,14.2c0,3-1.2,5.1-3.6,6.4c0,0.1,0.6,0.3,1.7,0.6c2.9,1.6,4.4,4.1,4.4,7.5c0,3.1-1.4,5.5-4.1,7.1
	c-1.2,0.5-2.3,0.8-3.1,0.8H40.2V6H54c1.3,0,2.8,0.5,4.4,1.5C60.6,9.4,61.6,11.7,61.6,14.2z M41.9,7.6v12.8h10.8c2.4,0,4-0.4,4.8-1.2
	c1-0.6,1.8-1.9,2.3-3.6l0.2-1.6c-0.3-2.2-0.6-3.3-0.8-3.3c-0.6-1.3-1.8-2.3-3.5-2.9c-0.8-0.2-1.5-0.3-1.9-0.3L41.9,7.6L41.9,7.6z
	 M41.9,22.2v12.7H56c1.9,0,3.2-0.4,4-1.1c1-0.5,1.7-1.7,2.3-3.5c0.1-1.1,0.2-1.7,0.2-1.7c-0.3-1.9-0.6-3.2-1.1-3.7
	c-0.7-1.2-1.8-2-3.2-2.4c-0.6-0.2-1.1-0.3-1.6-0.3L41.9,22.2L41.9,22.2z"/>
<path fill="#535453" d="M74.5,6.1h15.7v1.6H75.8c-2.2,0-3.7,0.2-4.5,0.7c-2.2,1.2-3.3,3.1-3.3,5.8s1.2,4.5,3.6,5.8
	c0.9,0.3,1.7,0.5,2.3,0.5h9.7c1,0,2.2,0.5,3.6,1.5c1.9,1.7,2.8,3.9,2.8,6.5c0,3.2-1.3,5.6-4.1,7.2c-1.2,0.6-2.2,0.8-3.1,0.8H66.2V35
	h14.3c2.3,0,3.7-0.2,4.4-0.6c2.4-1.2,3.6-3.2,3.6-6.2c0-0.9-0.4-2.1-1.1-3.5c-0.7-1.2-1.9-2-3.5-2.6L82.6,22h-9.5
	c-1.6,0-3.2-0.8-4.8-2.4c-1.3-1.7-1.9-3.4-1.9-5.2v-0.4c0-2.7,1.1-4.9,3.3-6.7C71.1,6.5,72.7,6.1,74.5,6.1L74.5,6.1z"/>
<path fill="#535453" d="M2.7,44.8c1.3,0,2.1,0.7,2.1,1.8S4,48.4,2.7,48.4H1.3v1.7H0.7v-5.3C0.7,44.8,2.7,44.8,2.7,44.8z M1.3,47.8h1.4
	c1,0,1.5-0.4,1.5-1.3s-0.6-1.2-1.5-1.2H1.3C1.3,45.4,1.3,47.8,1.3,47.8z"/>
<path fill="#535453" d="M8.7,49.5v0.6H5.8v-5.3h0.6v4.8C6.4,49.5,8.7,49.5,8.7,49.5z"/>
<path fill="#535453" d="M10.2,48.8l-0.6,1.3H9l2.4-5.3H12l2.4,5.3h-0.7l-0.6-1.3C13.1,48.8,10.2,48.8,10.2,48.8z M11.7,45.5l-1.2,2.7
	h2.4L11.7,45.5z"/>
<path fill="#535453" d="M19.3,45.5L18.9,46c-0.4-0.4-1-0.7-1.6-0.7c-1.2,0-2.2,0.9-2.2,2.1s1,2.1,2.2,2.1c0.6,0,1.2-0.2,1.6-0.6
	l0.4,0.4c-0.5,0.5-1.2,0.8-2,0.8c-1.5,0-2.8-1.2-2.8-2.7s1.2-2.7,2.8-2.7C18.1,44.7,18.8,45,19.3,45.5L19.3,45.5z"/>
<path fill="#535453" d="M20.4,50.1v-5.3H21v5.3H20.4z"/>
<path fill="#535453" d="M26.5,50.1l-3.2-4.3v4.3h-0.6v-5.3h0.6l3.2,4.3v-4.3h0.6v5.3C27.1,50.1,26.5,50.1,26.5,50.1z"/>
<path fill="#535453" d="M33,47.5v1.9c-0.5,0.4-1.3,0.7-2,0.7c-1.5,0-2.8-1.2-2.8-2.7s1.2-2.7,2.8-2.7c0.7,0,1.5,0.3,2,0.7l-0.3,0.5
	c-0.4-0.4-1-0.6-1.6-0.6c-1.2,0-2.2,0.9-2.2,2.1s1,2.1,2.2,2.1c0.5,0,1-0.2,1.4-0.5v-1.6L33,47.5L33,47.5z"/>
<path fill="#F26A30" d="M38.5,44.8c1.3,0,2.1,0.7,2.1,1.8s-0.8,1.9-2.1,1.9h-1.4v1.7h-0.6v-5.3C36.5,44.8,38.5,44.8,38.5,44.8z
	 M37.1,47.8h1.4c1,0,1.5-0.4,1.5-1.3s-0.6-1.2-1.5-1.2h-1.4V47.8z"/>
<path fill="#F26A30" d="M42.2,45.4v1.8h2.7v0.6h-2.7v1.8h3.1v0.6h-3.7v-5.3h3.6v0.6L42.2,45.4L42.2,45.4z"/>
<path fill="#F26A30" d="M51.7,47.4c0,1.5-1.2,2.7-2.8,2.7s-2.8-1.2-2.8-2.7s1.2-2.7,2.8-2.7S51.7,45.9,51.7,47.4z M46.7,47.4
	c0,1.2,1,2.1,2.2,2.1s2.2-0.9,2.2-2.1s-1-2.1-2.2-2.1S46.7,46.3,46.7,47.4z"/>
<path fill="#F26A30" d="M54.8,44.8c1.3,0,2.1,0.7,2.1,1.8s-0.8,1.9-2.1,1.9h-1.4v1.7h-0.6v-5.3C52.8,44.8,54.8,44.8,54.8,44.8z
	 M53.4,47.8h1.4c1,0,1.5-0.4,1.5-1.3s-0.6-1.2-1.5-1.2h-1.4V47.8z"/>
<path fill="#F26A30" d="M60.8,49.5v0.6h-3v-5.3h0.6v4.8C58.5,49.5,60.8,49.5,60.8,49.5z"/>
<path fill="#F26A30" d="M62.4,45.4v1.8h2.7v0.6h-2.7v1.8h3.1v0.6h-3.7v-5.3h3.6v0.6L62.4,45.4L62.4,45.4z"/>
<path fill="#535453" d="M69.5,45.4v1.9h2.5v0.6h-2.5v2.3h-0.6v-5.3h3.4v0.6L69.5,45.4L69.5,45.4z"/>
<path fill="#535453" d="M73.1,50.1v-5.3h0.6v5.3H73.1z"/>
<path fill="#535453" d="M77.8,48.4c-0.1,0-0.2,0-0.4,0H76v1.7h-0.6v-5.3h2c1.3,0,2.1,0.7,2.1,1.8c0,0.9-0.4,1.5-1.2,1.7l1.2,1.8h-0.7
	C78.8,50.1,77.8,48.4,77.8,48.4z M77.4,47.8c1,0,1.5-0.4,1.5-1.3s-0.6-1.2-1.5-1.2H76v2.5H77.4z"/>
<path fill="#535453" d="M87.1,45.4v4.8h-0.6v-4.8h-1.7v-0.6h4.1v0.6C88.9,45.4,87.1,45.4,87.1,45.4z"/>
<path fill="#535453" d="M84.1,45.2l-0.3,0.6c-0.5-0.3-1-0.5-1.5-0.5c-0.7,0-1.1,0.3-1.1,0.7c0,1.4,3,0.7,3,2.6c0,0.9-0.8,1.5-1.9,1.5
	c-0.8,0-1.5-0.3-2-0.8l0.3-0.5c0.5,0.5,1.2,0.8,1.8,0.8c0.8,0,1.2-0.3,1.2-0.8c0-1.4-3-0.7-3-2.6c0-0.8,0.7-1.4,1.8-1.4
	C83.1,44.7,83.7,44.9,84.1,45.2L84.1,45.2z"/>
</svg>
