<?xml version="1.0" encoding="UTF-8"?>
<svg xmlns="http://www.w3.org/2000/svg" version="1.1" viewBox="0 0 391.6 113.3">
  <defs>
    <style>
      .cls-1 {
        fill: #0440ac;
      }

      .cls-2 {
        fill: #0a43ad;
      }
    </style>
  </defs>
  <!-- Generator: Adobe Illustrator 28.6.0, SVG Export Plug-In . SVG Version: 1.2.0 Build 709)  -->
  <g>
    <g id="Layer_1">
      <g>
        <g>
          <path class="cls-2" d="M114.8,45.2v34.2c0,.8-.3,1.5-.8,2s-1.2.8-2,.8-1.5-.3-2-.8c-.5-.5-.8-1.2-.8-2v-43.3c0-.8.3-1.5.8-2s1.2-.8,2-.8,1.8.4,2.3,1.3l24.2,35.8v-34.2c0-.8.3-1.5.8-2,.5-.5,1.2-.8,2-.8s1.5.3,2,.8c.5.5.8,1.2.8,2v43.3c0,.8-.3,1.5-.8,2s-1.2.8-2,.8-1.8-.4-2.3-1.3l-24.2-35.8Z"/>
          <path class="cls-2" d="M157.7,67.5c.3,1.3.8,2.5,1.5,3.6.7,1.1,1.6,2.1,2.6,2.9,1,.8,2.2,1.4,3.4,1.9,1.3.5,2.6.7,4,.7s3.2-.3,4.6-.9c1.4-.6,2.7-1.5,3.8-2.6.6-.5,1.2-.8,2-.8s1.4.3,2,.8c.5.6.8,1.2.8,2s-.3,1.4-.8,2c-1.6,1.6-3.5,2.8-5.6,3.7s-4.4,1.4-6.8,1.4-4.7-.5-6.8-1.4c-2.1-.9-4-2.2-5.6-3.7-1.6-1.6-2.8-3.4-3.7-5.6-.9-2.1-1.4-4.4-1.4-6.8s.5-4.7,1.4-6.8c.9-2.1,2.2-4,3.7-5.6s3.4-2.8,5.6-3.7c2.1-.9,4.4-1.4,6.8-1.4s4.7.5,6.8,1.4c2.1.9,4,2.2,5.6,3.7,1.6,1.6,2.8,3.4,3.7,5.6.9,2.1,1.4,4.4,1.4,6.8s-.3,1.5-.8,2-1.2.8-2,.8h-26.2ZM180.8,61.9c-.3-1.3-.8-2.5-1.6-3.6-.7-1.1-1.6-2.1-2.6-2.9-1-.8-2.1-1.4-3.4-1.9-1.3-.5-2.6-.7-4-.7s-2.7.2-4,.7c-1.3.5-2.4,1.1-3.4,1.9-1,.8-1.9,1.7-2.6,2.9-.7,1.1-1.2,2.3-1.5,3.6h23.1Z"/>
          <path class="cls-2" d="M199.3,71.7c0,1.4.5,2.5,1.4,3.5,1,1,2.1,1.4,3.5,1.4s2.5-.5,3.5-1.5c.5-.5,1.2-.8,1.9-.8s1.4.3,2,.8c.6.6.8,1.2.8,2s-.3,1.4-.8,2c-.9.9-2,1.7-3.3,2.2-1.3.6-2.6.8-4.1.8s-2.8-.3-4.1-.8c-1.3-.6-2.4-1.3-3.3-2.2-.9-.9-1.7-2-2.2-3.3-.6-1.3-.8-2.6-.8-4.1v-35.6c0-.8.3-1.5.8-2s1.2-.8,2-.8,1.5.3,2,.8c.5.5.8,1.2.8,2v11.2h7.7c.8,0,1.5.3,2,.8s.8,1.2.8,2-.3,1.5-.8,2c-.5.5-1.2.8-2,.8h-7.7v18.9Z"/>
          <path class="cls-2" d="M220.1,64.7v-32.1c0-.8.3-1.5.8-2,.5-.5,1.2-.8,2-.8s1.5.3,2,.8c.5.5.8,1.2.8,2v19.4c1.6-1.5,3.4-2.6,5.4-3.5,2-.8,4.2-1.2,6.5-1.2s4.7.5,6.8,1.4c2.1.9,4,2.2,5.6,3.7,1.6,1.6,2.8,3.4,3.7,5.6.9,2.1,1.4,4.4,1.4,6.8s-.5,4.7-1.4,6.8c-.9,2.1-2.2,4-3.7,5.6s-3.4,2.8-5.6,3.7c-2.1.9-4.4,1.4-6.8,1.4s-4.5-.4-6.5-1.2c-2-.8-3.8-2-5.4-3.5v1.9c0,.8-.3,1.5-.8,2-.5.5-1.2.8-2,.8s-1.5-.3-2-.8c-.5-.5-.8-1.2-.8-2v-14.7ZM237.6,76.6c1.6,0,3.2-.3,4.6-.9,1.4-.6,2.7-1.5,3.8-2.6,1.1-1.1,1.9-2.3,2.6-3.8.6-1.4.9-3,.9-4.6s-.3-3.2-.9-4.6c-.6-1.4-1.5-2.7-2.6-3.8-1.1-1.1-2.3-1.9-3.8-2.6-1.4-.6-3-.9-4.6-.9s-3.2.3-4.6.9c-1.4.6-2.7,1.5-3.8,2.6-1.1,1.1-1.9,2.3-2.5,3.8-.6,1.4-.9,3-.9,4.6s.3,3.2.9,4.6c.6,1.4,1.5,2.7,2.5,3.8,1.1,1.1,2.3,1.9,3.8,2.6,1.4.6,3,.9,4.6.9Z"/>
          <path class="cls-2" d="M290.7,77.5c-1.6,1.5-3.4,2.6-5.4,3.5-2,.8-4.2,1.2-6.5,1.2s-4.7-.5-6.8-1.4c-2.1-.9-4-2.2-5.6-3.7s-2.8-3.4-3.7-5.6c-.9-2.1-1.4-4.4-1.4-6.8s.5-4.7,1.4-6.8c.9-2.1,2.2-4,3.7-5.6,1.6-1.6,3.4-2.8,5.6-3.7,2.1-.9,4.4-1.4,6.8-1.4s4.7.5,6.8,1.4c2.1.9,4,2.2,5.6,3.7,1.6,1.6,2.8,3.4,3.7,5.6.9,2.1,1.4,4.4,1.4,6.8v14.7c0,.8-.3,1.5-.8,2-.5.5-1.2.8-2,.8s-1.5-.3-2-.8c-.5-.5-.8-1.2-.8-2v-1.9ZM278.8,76.6c1.6,0,3.2-.3,4.6-.9,1.4-.6,2.7-1.5,3.8-2.6,1.1-1.1,1.9-2.3,2.6-3.8.6-1.4.9-3,.9-4.6s-.3-3.2-.9-4.6c-.6-1.4-1.5-2.7-2.6-3.8-1.1-1.1-2.3-1.9-3.8-2.6-1.4-.6-3-.9-4.6-.9s-3.2.3-4.6.9c-1.4.6-2.7,1.5-3.8,2.6-1.1,1.1-1.9,2.3-2.5,3.8-.6,1.4-.9,3-.9,4.6s.3,3.2.9,4.6c.6,1.4,1.5,2.7,2.5,3.8,1.1,1.1,2.3,1.9,3.8,2.6,1.4.6,3,.9,4.6.9Z"/>
          <path class="cls-2" d="M333.3,64.7c0-1.6-.3-3.2-.9-4.6-.6-1.4-1.5-2.7-2.6-3.8-1.1-1.1-2.3-1.9-3.8-2.6-1.4-.6-3-.9-4.6-.9s-3.2.3-4.6.9c-1.4.6-2.7,1.5-3.8,2.6-1.1,1.1-1.9,2.3-2.5,3.8-.6,1.4-.9,3-.9,4.6v14.7c0,.8-.3,1.5-.8,2-.5.5-1.2.8-2,.8s-1.5-.3-2-.8c-.5-.5-.8-1.2-.8-2v-29.3c0-.8.3-1.5.8-2s1.2-.8,2-.8,1.5.3,2,.8.8,1.2.8,2v1.9c1.6-1.5,3.4-2.6,5.4-3.5,2-.8,4.2-1.2,6.5-1.2s4.7.5,6.8,1.4c2.1.9,4,2.2,5.6,3.7,1.6,1.6,2.8,3.4,3.7,5.6.9,2.1,1.4,4.4,1.4,6.8v14.7c0,.8-.3,1.5-.8,2-.5.5-1.2.8-2,.8s-1.5-.3-2-.8c-.5-.5-.8-1.2-.8-2v-14.7Z"/>
          <path class="cls-2" d="M364.1,68.7l-12.7,12.6c-.5.6-1.2.8-2,.8s-1.5-.3-2-.8c-.5-.5-.8-1.2-.8-2v-46.8c0-.8.3-1.5.8-2,.5-.5,1.2-.8,2-.8s1.5.3,2,.8c.5.5.8,1.2.8,2v40l24.6-24.5c.5-.6,1.2-.8,2-.8s1.4.3,2,.8c.6.5.8,1.2.8,2s-.3,1.4-.8,2l-12.6,12.7,12.6,12.7c.6.5.8,1.2.8,2s-.3,1.4-.8,2c-.5.6-1.2.8-2,.8s-1.4-.3-2-.8l-12.7-12.6Z"/>
        </g>
        <path class="cls-1" d="M50.8,105.8c-.2,0-.4,0-.7,0C2.3,95.1,10.5,30.8,10.6,30.1c.2-1.6,1.6-2.7,3.2-2.6,21.7,1.4,34.4-14.9,34.5-15,.6-.8,1.5-1.2,2.4-1.2.9,0,1.9.4,2.4,1.2.1.2,12.8,16.4,34.5,15,1.6,0,3,1.1,3.2,2.6,0,.6,8.3,64.9-39.5,75.6-.2,0-.4,0-.7,0ZM16.4,33.7c-1,11.8-2.5,57.1,34.4,65.9,36.9-8.8,35.4-54,34.4-65.9h-.1c-17.6,0-29.4-9.8-34.3-14.8-4.8,5-16.6,14.8-34.3,14.8h-.1Z"/>
        <path class="cls-1" d="M44.6,71.1c-.8,0-1.5-.3-2.1-.8l-9.3-8.9c-1.2-1.2-1.3-3.1-.1-4.3,1.2-1.2,3.1-1.3,4.3-.1l7.2,6.9,16.3-15.1c1.2-1.2,3.2-1.1,4.3.2s1.1,3.2-.2,4.3l-18.4,17.1c-.6.5-1.3.8-2.1.8Z"/>
      </g>
    </g>
  </g>
</svg>