<svg xmlns="http://www.w3.org/2000/svg" id="Layer_2" data-name="Layer 2" viewBox="0 0 175.62 46.31"><defs><style>      .cls-1 {        fill: #0c99d5;      }      .cls-2 {        fill: #616465;      }    </style></defs><g id="Layer_1-2" data-name="Layer 1"><g id="Shore360"><g><path class="cls-1" d="M3.28,1.31C1.29,2.9.29,4.95.29,7.43v.31c0,1.62.59,3.22,1.77,4.77,1.43,1.47,2.91,2.22,4.4,2.22h8.37s1.15.18,1.15.18c1.35.45,2.34,1.17,2.92,2.13.61,1.18.91,2.17.91,2.95,0,2.54-.98,4.25-3,5.23-.54.31-1.81.47-3.76.47H.16v1.85h15.02c.82,0,1.79-.26,2.9-.79,2.46-1.47,3.71-3.68,3.71-6.57,0-2.4-.87-4.41-2.63-6-1.35-.92-2.44-1.37-3.35-1.37H7.21c-.53,0-1.2-.14-1.94-.41-2.02-1.13-3-2.74-3-4.92,0-2.29.9-3.9,2.76-4.92.64-.39,1.92-.59,3.82-.59h13.01V.06H7.71C6.14.06,4.66.48,3.28,1.31Z"></path><polygon class="cls-1" points="43.05 12.87 25.18 12.87 25.18 0 23.21 0 23.21 27.53 25.18 27.53 25.18 14.85 43.05 14.85 43.05 27.53 44.96 27.53 44.96 0 43.05 0 43.05 12.87"></polygon><path class="cls-1" d="M68,9.52c-.26-1.55-.58-2.65-.96-3.32-.67-1.58-1.95-3.01-3.82-4.27-1.94-1.11-4.03-1.67-6.23-1.67-.97.01-2.12.2-3.41.58-2.42.8-4.33,2.25-5.67,4.33-1.06,1.89-1.6,4.03-1.6,6.35v4.84c0,3.83,1.36,6.88,4.08,9.08,2.15,1.4,4.2,2.12,6.11,2.12h.57c3.14,0,5.8-1,7.91-2.97,2.05-2.05,3.09-4.61,3.09-7.6v-6.23s-.07-1.22-.07-1.22ZM62.58,23.78c-1.71,1.06-3.41,1.59-5.07,1.59h-.5c-.44,0-1.25-.1-2.36-.3-4.23-1.43-6.29-4.32-6.29-8.85v-4.77c0-1.41.27-2.82.79-4.15.99-2.04,2.55-3.47,4.61-4.26,1.33-.41,2.5-.61,3.48-.62l.84.13c1.28,0,2.82.56,4.54,1.63,2.31,1.94,3.51,4.32,3.55,7.08v6.17c-.3,1.92-.79,3.32-1.47,4.17-.48.8-1.19,1.53-2.11,2.17Z"></path><path class="cls-1" d="M89.74,12.04c.66-.9,1.12-2.12,1.37-3.67v-1.82c0-.65-.23-1.51-.72-2.62-.41-.89-1.05-1.7-1.91-2.43-1.38-.99-2.81-1.49-4.24-1.49h-14.83v27.53h1.98v-12.68h10.65c.34.52,1.94,3.24,7.25,12.55l.13.22,1.73-.87-6.83-11.91c2.21-.11,4.03-1.05,5.41-2.8ZM71.4,1.92h12.79c.98,0,2.05.39,3.15,1.12,1.28,1.17,1.92,2.64,1.92,4.39,0,1.4-.46,2.65-1.39,3.73-.83,1.14-2.39,1.71-4.62,1.71h-11.85V1.92Z"></path><path class="cls-1" d="M99.98,1.15c-2.92,1.33-5.2,3.46-6.79,6.35-1.02,2.28-1.53,4.39-1.53,6.26,0,1.49.34,3.25,1.02,5.25.45,1.13,1.22,2.4,2.32,3.79,2.99,3.14,6.41,4.73,10.18,4.73h8.24v-1.92h-7.24c-2.15,0-3.84-.29-5.05-.86-2.07-.78-3.86-2.21-5.33-4.22-1.13-1.79-1.82-3.7-2.06-5.68h13.53v-1.98h-13.52l.08-.64c.3-1.97,1.02-3.77,2.14-5.34,2.55-3.22,5.8-4.86,9.65-4.86h7.8V0h-7.61c-2.03,0-3.98.39-5.82,1.15Z"></path><path class="cls-2" d="M131.77,2.25l-.04-.04c-1.53-1.42-3.26-2.14-5.14-2.14h-11.82v1.92h10.38c1.42,0,2.46.08,3.05.23,1.4.53,2.39,1.37,2.94,2.52.31.55.53,1.47.65,2.75-.29,1.83-.54,2.46-.71,2.69-1.16,1.78-2.55,2.64-4.23,2.64h-10.82v1.98h9.62c1.13,0,1.91.06,2.3.17,1.46.52,2.43,1.23,2.86,2.13l.06.08c.24.22.59.89.88,2.8l-.02.27c0,1.36-.45,2.63-1.3,3.76-1.15,1.08-2.4,1.62-3.71,1.62h-11.95v1.92h9.63l2.7-.06c.86,0,1.91-.28,3.15-.86,1.14-.71,2.02-1.7,2.63-2.96.24-.15.48-.73.83-2.92v-.5c0-1.03-.17-2.07-.53-3.13-.78-1.63-1.72-2.73-2.8-3.3,2.21-1.39,3.33-3.56,3.33-6.44v-.5c0-.8-.3-1.82-.93-3.17l-1-1.44Z"></path><path class="cls-2" d="M149.25,9.95c-1.68-.85-3.18-1.28-4.45-1.28s-2.52.19-3.55.57l6.06-9.24h-2.27l-.08.11c-1.18,1.68-3.84,5.7-7.91,11.93-1.13,1.57-1.8,3.56-2,5.93,0,3.56,1.54,6.39,4.61,8.41,1.64.77,3.01,1.16,4.07,1.16h1.01l.81-.06c1.51,0,3.27-.76,5.28-2.28,2.05-2.13,3.09-4.39,3.09-6.72,0-2.18-.46-3.94-1.35-5.21-.63-1.19-1.73-2.3-3.32-3.32ZM152.06,18.04c0,2.11-.72,3.95-2.11,5.45-1.53,1.37-3.35,2.07-5.41,2.07h-.25c-1.61,0-3.21-.55-4.71-1.62-1.69-1.59-2.55-3.43-2.55-5.46v-.69c0-1.58.57-3.13,1.68-4.59,1.57-1.65,3.45-2.49,5.58-2.49h.38c2.27,0,4.22.88,5.75,2.59,1.09,1.54,1.65,3.13,1.65,4.74Z"></path><path class="cls-2" d="M170.52,1.28c-1.78-.81-3.39-1.22-4.76-1.22h-.63c-1.05,0-2.45.3-4.2.91-3.76,1.9-5.67,5.13-5.67,9.59v6.66c0,.82.09,1.62.25,2.36.21,1.66,1.08,3.39,2.6,5.19,2.18,1.83,4.44,2.76,6.7,2.76h1.39c.75-.03,1.17-.07,1.37-.19.85-.04,2.05-.5,3.67-1.42.79-.53,1.4-1.06,1.81-1.55,1.63-1.8,2.46-4.02,2.46-6.58v-7.97c0-3.7-1.67-6.57-4.99-8.53ZM173.54,10.44v6.78c0,2.68-.88,4.83-2.59,6.38-1.75,1.3-3.56,1.96-5.37,1.96h-.38c-.62,0-1.5-.17-2.6-.48-2.1-.82-3.49-1.93-4.12-3.32l-.03-.05c-.76-1.02-1.14-2.95-1.14-5.74v-4.27c0-2.1.18-3.66.54-4.6.39-.92.97-1.84,1.7-2.74,1.86-1.49,3.76-2.25,5.65-2.25h.44c1.32,0,2.67.37,4.01,1.1,2.58,1.46,3.88,3.9,3.88,7.24Z"></path></g><g><path class="cls-1" d="M3.44,45.18h-.74v-2.57l-2.7-3.92h.89l2.19,3.24,2.21-3.24h.85l-2.7,3.91v2.58Z"></path><path class="cls-1" d="M11.61,45.3c-1.97,0-3.3-1.55-3.3-3.35s1.34-3.36,3.32-3.36,3.3,1.55,3.3,3.35-1.34,3.36-3.32,3.36ZM11.61,39.26c-1.48,0-2.54,1.19-2.54,2.67s1.08,2.69,2.56,2.69,2.54-1.19,2.54-2.67-1.07-2.69-2.56-2.69Z"></path><path class="cls-1" d="M23.64,42.41c0,1.89-1.08,2.87-2.71,2.87s-2.7-.98-2.7-2.82v-3.77h.73v3.72c0,1.4.74,2.19,1.98,2.19s1.96-.72,1.96-2.14v-3.77h.73v3.72Z"></path><path class="cls-1" d="M31.69,45.18l-1.88-2.52h-1.85v2.52h-.73v-6.49h2.79c1.43,0,2.34.77,2.34,1.94,0,1.08-.74,1.71-1.76,1.9l1.99,2.65h-.9ZM29.96,39.37h-2v2.63h1.99c.97,0,1.67-.5,1.67-1.34s-.61-1.29-1.66-1.29Z"></path><path class="cls-1" d="M42.74,41.59c1.45.32,2.11.84,2.11,1.84,0,1.12-.93,1.84-2.22,1.84-1.03,0-1.87-.34-2.65-1.04l.45-.54c.68.61,1.33.92,2.22.92s1.45-.45,1.45-1.11c0-.61-.32-.95-1.69-1.24-1.49-.32-2.18-.81-2.18-1.88s.9-1.78,2.13-1.78c.95,0,1.62.27,2.28.8l-.43.57c-.6-.49-1.2-.7-1.87-.7-.84,0-1.38.46-1.38,1.06s.33.96,1.76,1.27Z"></path><path class="cls-1" d="M50.52,45.18h-.74v-5.81h-2.18v-.68h5.1v.68h-2.18v5.81Z"></path><path class="cls-1" d="M61.14,45.18h-.79l-.76-1.71h-3.53l-.77,1.71h-.75l2.96-6.53h.69l2.96,6.53ZM57.83,39.5l-1.48,3.31h2.96l-1.47-3.31Z"></path><path class="cls-1" d="M68.93,39.37h-3.93v2.32h3.51v.67h-3.51v2.83h-.73v-6.49h4.66v.68Z"></path><path class="cls-1" d="M76.87,39.37h-3.93v2.32h3.51v.67h-3.51v2.83h-.73v-6.49h4.66v.68Z"></path><path class="cls-1" d="M79.35,45.18h-.33v-.97h.85v.83c0,.75-.32,1.11-1.03,1.27l-.11-.32c.46-.17.66-.41.62-.81Z"></path><path class="cls-1" d="M90.99,45.3c-1.97,0-3.3-1.55-3.3-3.35s1.34-3.36,3.32-3.36,3.3,1.55,3.3,3.35-1.34,3.36-3.32,3.36ZM90.99,39.26c-1.48,0-2.54,1.19-2.54,2.67s1.08,2.69,2.56,2.69,2.54-1.19,2.54-2.67-1.07-2.69-2.56-2.69Z"></path><path class="cls-1" d="M103.01,42.41c0,1.89-1.08,2.87-2.71,2.87s-2.7-.98-2.7-2.82v-3.77h.73v3.72c0,1.4.74,2.19,1.98,2.19s1.96-.72,1.96-2.14v-3.77h.73v3.72Z"></path><path class="cls-1" d="M111.07,45.18l-1.88-2.52h-1.85v2.52h-.73v-6.49h2.79c1.43,0,2.35.77,2.35,1.94,0,1.08-.74,1.71-1.76,1.9l1.99,2.65h-.9ZM109.34,39.37h-2v2.63h1.99c.97,0,1.67-.5,1.67-1.34s-.61-1.29-1.66-1.29Z"></path><path class="cls-2" d="M122.12,41.59c1.45.32,2.11.84,2.11,1.84,0,1.12-.93,1.84-2.22,1.84-1.03,0-1.87-.34-2.65-1.04l.45-.54c.68.61,1.33.92,2.22.92s1.45-.45,1.45-1.11c0-.61-.32-.95-1.69-1.24-1.49-.32-2.18-.81-2.18-1.88s.9-1.78,2.13-1.78c.95,0,1.62.27,2.28.8l-.43.57c-.6-.49-1.2-.7-1.87-.7-.84,0-1.38.46-1.38,1.06s.33.96,1.76,1.27Z"></path><path class="cls-2" d="M132.88,42.41c0,1.89-1.08,2.87-2.71,2.87s-2.7-.98-2.7-2.82v-3.77h.73v3.72c0,1.4.74,2.19,1.98,2.19s1.96-.72,1.96-2.14v-3.77h.73v3.72Z"></path><path class="cls-2" d="M138.78,42.9h-1.57v2.29h-.73v-6.49h2.43c1.46,0,2.43.78,2.43,2.07,0,1.41-1.17,2.13-2.55,2.13ZM138.84,39.37h-1.64v2.85h1.6c1.07,0,1.78-.57,1.78-1.44,0-.94-.69-1.42-1.74-1.42Z"></path><path class="cls-2" d="M146.83,42.9h-1.57v2.29h-.73v-6.49h2.43c1.46,0,2.43.78,2.43,2.07,0,1.41-1.17,2.13-2.55,2.13ZM146.89,39.37h-1.64v2.85h1.6c1.07,0,1.78-.57,1.78-1.44,0-.94-.69-1.42-1.74-1.42Z"></path><path class="cls-2" d="M155.58,45.3c-1.97,0-3.3-1.55-3.3-3.35s1.34-3.36,3.32-3.36,3.3,1.55,3.3,3.35-1.34,3.36-3.32,3.36ZM155.58,39.26c-1.48,0-2.54,1.19-2.54,2.67s1.08,2.69,2.56,2.69,2.54-1.19,2.54-2.67-1.07-2.69-2.56-2.69Z"></path><path class="cls-2" d="M166.77,45.18l-1.88-2.52h-1.85v2.52h-.73v-6.49h2.79c1.43,0,2.34.77,2.34,1.94,0,1.08-.74,1.71-1.76,1.9l1.99,2.65h-.9ZM165.03,39.37h-2v2.63h1.99c.97,0,1.67-.5,1.67-1.34s-.61-1.29-1.66-1.29Z"></path><path class="cls-2" d="M173.25,45.18h-.74v-5.81h-2.18v-.68h5.1v.68h-2.18v5.81Z"></path></g><rect class="cls-1" x=".18" y="32.36" width="114.24" height="1.78"></rect><rect class="cls-2" x="114.13" y="32.36" width="61.49" height="1.78"></rect></g></g></svg>