<svg xmlns="http://www.w3.org/2000/svg" width="170" height="71" viewBox="0 0 170 71" fill="none"><path d="M8.8784 34.5671L6.16027 34.0098C4.69605 33.6907 3.94775 32.7861 3.94775 31.5908C3.94775 30.1531 5.2785 28.8769 7.19575 28.8769C9.72781 28.8769 10.7107 30.6054 10.8968 31.7765L13.7726 30.8719C13.3479 28.7719 11.6167 26.0581 7.16744 26.0581C3.65248 26.0581 0.748293 28.6629 0.748293 31.829C0.748293 34.6478 2.66554 36.5338 5.54141 37.1194L8.20696 37.6767C9.83298 38.024 10.735 39.0053 10.735 40.229C10.735 41.6909 9.56197 42.8337 7.30092 42.8337C4.58279 42.8337 3.17115 41.0245 2.98508 39.0578L0 39.9099C0.291228 42.6238 2.50375 45.7091 7.29687 45.7091C11.6127 45.7091 13.983 42.9186 13.983 39.9907C13.983 37.3294 12.1992 35.2294 8.87031 34.5671" fill="white"></path><path d="M30.4414 40.2288L27.2985 36.7437L25.1143 38.6054L28.2289 42.0623C27.3511 42.4863 26.3642 42.6761 25.4056 42.6761C22.2344 42.6761 19.0916 40.4146 19.0916 35.8673C19.0916 31.3201 22.2344 29.0585 25.4056 29.0585C28.5767 29.0585 31.7438 31.3201 31.7438 35.8673C31.7438 37.7008 31.2382 39.1385 30.4373 40.2288M25.4056 26.054C20.4507 26.054 15.8153 29.6966 15.8153 35.8673C15.8153 42.0381 20.4507 45.705 25.4056 45.705C26.7727 45.705 28.1358 45.4182 29.3735 44.8811L28.7668 42.6721L30.3281 44.4046C30.3281 44.4046 30.3281 44.4046 30.3322 44.4046L32.6499 46.9326L34.8057 45.0992L32.569 42.5994C34.0615 40.9517 35.0201 38.6619 35.0201 35.8714C35.0201 29.7007 30.3605 26.058 25.4056 26.058" fill="white"></path><path d="M48.6874 38.553C48.6874 41.2143 47.2474 42.6762 44.8245 42.6762C42.4017 42.6762 40.9617 41.2143 40.9617 38.553V26.4539H37.7906V38.7388C37.7906 43.286 40.8808 45.7051 44.8245 45.7051C48.7683 45.7051 51.8828 43.286 51.8828 38.7388V26.4539H48.6874V38.553Z" fill="white"></path><path d="M59.0342 37.6242L61.91 29.9108L64.7859 37.6242H59.0342ZM60.1303 26.4539L52.7768 45.3093H56.1583L57.9178 40.5763H65.9104L67.6941 45.3093H71.1848L63.8354 26.4539H60.1344H60.1303Z" fill="white"></path><path d="M79.4686 42.3855H76.1114V29.3817H79.4928C82.7692 29.3817 85.459 31.51 85.459 35.924C85.459 40.338 82.7449 42.3855 79.4645 42.3855M79.6021 26.4539H72.916V45.3093H79.5737C84.6864 45.3093 88.7919 41.9574 88.7919 35.924C88.7919 29.8906 84.743 26.4579 79.6021 26.4579" fill="white"></path><path d="M98.1313 35.0436H94.6932V29.2727H98.1313C100.101 29.2727 101.379 30.4156 101.379 32.1723C101.379 33.929 100.101 35.0436 98.1313 35.0436ZM104.627 32.1723C104.627 28.9819 102.362 26.4539 98.7138 26.4539H91.4695V45.3093H94.6932V37.8624H97.0392L101.007 45.3093H104.631L100.368 37.5434C103.005 36.9053 104.631 34.8578 104.631 32.1723" fill="white"></path><path d="M115.953 42.6761C112.782 42.6761 109.639 40.4146 109.639 35.8673C109.639 31.3201 112.782 29.0585 115.953 29.0585C119.124 29.0585 122.291 31.3201 122.291 35.8673C122.291 40.4146 119.148 42.6761 115.953 42.6761ZM115.953 26.054C110.998 26.054 106.363 29.6966 106.363 35.8673C106.363 42.0381 110.998 45.705 115.953 45.705C120.908 45.705 125.567 42.0623 125.567 35.8673C125.567 29.6724 120.908 26.054 115.953 26.054Z" fill="white"></path><path d="M140.525 26.4539V39.8291L131.95 26.4539H127.873V45.3093H131.068V31.0294L140.392 45.3093H143.721V26.4539H140.525Z" fill="white"></path><path d="M58.3385 69.6406V66.6602H49.8686V61.6607H57.5376V58.7611H49.8686V53.7615H58.3385V50.7852H46.6691V69.6406H58.3385Z" fill="white"></path><path d="M77.2116 69.6406V50.7852H74.0121V64.1604L65.4371 50.7852H61.3639V69.6406H64.5593V55.3567L73.8827 69.6406H77.2116Z" fill="white"></path><path d="M92.1816 69.6406V66.6602H83.7118V61.6607H91.3848V58.7611H83.7118V53.7615H92.1816V50.7852H80.5164V69.6406H92.1816Z" fill="white"></path><path d="M108.498 56.5036C108.498 53.3132 106.233 50.7852 102.585 50.7852H95.3404V69.6406H98.5642V62.1937H100.906L104.874 69.6406H108.498L104.235 61.8747C106.872 61.2366 108.498 59.1891 108.498 56.5036ZM98.5642 59.3749V53.604H101.998C103.968 53.604 105.246 54.7469 105.246 56.5036C105.246 58.2603 103.968 59.3749 101.998 59.3749H98.5642Z" fill="white"></path><path d="M135.748 61.6607V69.6406H138.944V61.6607L145.602 50.7852H142.006L137.451 58.6803L132.925 50.7852H129.143L135.748 61.6607Z" fill="white"></path><path d="M150.581 0.850098H148.716L146.172 3.38623L135.481 14.0638L137.346 15.9256L148.041 5.25199L150.581 2.71181V0.850098Z" fill="#ADD136"></path><path d="M135.481 0.850098V3.38623H143.458L146.002 0.850098H135.481Z" fill="#ADD136"></path><path d="M150.581 5.42163L148.041 7.9618V15.9256H150.581V5.42163Z" fill="#ADD136"></path><path d="M154.884 0.850098V3.38623H162.865L165.405 0.850098H154.884Z" fill="#ADD136"></path><path d="M169.988 0.850098H168.119L165.579 3.38623L154.884 14.0638L156.753 15.9256L167.444 5.25199L169.988 2.71181V0.850098Z" fill="#ADD136"></path><path d="M167.444 7.9618V15.9256H169.988V5.42163L167.444 7.9618Z" fill="#ADD136"></path><path d="M165.405 20.2185H154.884V22.7587H162.865L165.405 20.2185Z" fill="#ADD136"></path><path d="M169.988 20.2185H168.119L165.579 22.7587L154.884 33.4323L156.753 35.298L167.444 24.6204L169.988 22.0843V20.2185Z" fill="#ADD136"></path><path d="M167.444 27.7258V35.6937H169.988V25.1897L167.444 27.7258Z" fill="#ADD136"></path><path d="M126.053 58.7369H129.43H126.053ZM129.43 58.7369C128.5 52.4854 123.323 50.2764 119.921 50.2764C114.622 50.2764 110.31 54.7348 110.31 60.2149C110.31 65.6951 114.622 70.1495 119.921 70.1495C121.858 70.1495 123.727 69.5558 125.321 68.4332C125.968 67.9768 126.558 67.4397 127.076 66.838V69.6447H129.859V61.2084H121.802V63.9868H125.078C124.629 64.6653 124.063 65.2549 123.403 65.7193C122.372 66.4462 121.167 66.8299 119.917 66.8299C116.45 66.8299 113.635 63.8617 113.635 60.2149C113.635 56.5682 116.454 53.6 119.917 53.6C122.174 53.6 125.236 55.07 126.049 58.7409" fill="white"></path></svg>